<?xml version="1.0" encoding="UTF-8" standalone="no"?>
<!-- Created with Inkscape (http://www.inkscape.org/) -->

<svg
   xmlns:sketch="http://www.bohemiancoding.com/sketch/ns"
   xmlns:dc="http://purl.org/dc/elements/1.1/"
   xmlns:cc="http://creativecommons.org/ns#"
   xmlns:rdf="http://www.w3.org/1999/02/22-rdf-syntax-ns#"
   xmlns:svg="http://www.w3.org/2000/svg"
   xmlns="http://www.w3.org/2000/svg"
   xmlns:xlink="http://www.w3.org/1999/xlink"
   xmlns:sodipodi="http://sodipodi.sourceforge.net/DTD/sodipodi-0.dtd"
   xmlns:inkscape="http://www.inkscape.org/namespaces/inkscape"
   width="150"
   height="150"
   id="svg4412"
   version="1.1"
   inkscape:version="0.48.4 r9939"
   sodipodi:docname="stopwatch.svg">
  <defs
     id="defs4414" />
  <sodipodi:namedview
     id="base"
     pagecolor="#ffffff"
     bordercolor="#666666"
     borderopacity="1.0"
     inkscape:pageopacity="0.0"
     inkscape:pageshadow="2"
     inkscape:zoom="1"
     inkscape:cx="92.730619"
     inkscape:cy="23.494542"
     inkscape:document-units="px"
     inkscape:current-layer="g4555"
     showgrid="false"
     inkscape:window-width="1301"
     inkscape:window-height="744"
     inkscape:window-x="65"
     inkscape:window-y="24"
     inkscape:window-maximized="1" />
  <metadata
     id="metadata4417">
    <rdf:RDF>
      <cc:Work
         rdf:about="">
        <dc:format>image/svg+xml</dc:format>
        <dc:type
           rdf:resource="http://purl.org/dc/dcmitype/StillImage" />
        <dc:title></dc:title>
      </cc:Work>
    </rdf:RDF>
  </metadata>
  <g
     inkscape:label="Calque 1"
     inkscape:groupmode="layer"
     id="layer1"
     transform="translate(0,-902.36217)">
    <g
       id="g4555"
       transform="matrix(1.1904723,0,0,1.1904723,-267.02072,574.12977)">
      <g
         id="g4421"
         transform="translate(-316.68103,3.360011)">
        <defs
           id="defs4423">
          <rect
             height="636.797"
             width="1214.267"
             y="-59.900002"
             x="179.657"
             id="SVGID_1_" />
        </defs>
        <clipPath
           id="SVGID_2_">
          <use
             id="use4427"
             overflow="visible"
             xlink:href="#SVGID_1_"
             style="overflow:visible"
             x="0"
             y="0"
             width="1"
             height="1" />
        </clipPath>
        <path
           id="path4429"
           d="m 336.187,227.94 c -1.492,-0.194 -2.995,-0.155 -4.495,-0.153 -0.686,0.002 -3.592,0.342 -4.016,-0.269 -0.301,-0.43 0.482,-1.662 0.549,-2.184 0.167,-1.306 -0.139,-2.884 -0.352,-4.174 -0.289,-1.76 0.145,-3.554 -0.336,-5.178 -0.453,-1.535 -1.076,-3.016 -1.073,-4.682 0.002,-0.901 0.178,-1.349 0.374,-2.1 0.535,-2.055 0.832,-2.751 2.843,-3.556 0.654,-0.261 1.009,-0.249 1.761,-0.348 1.403,-0.184 2.759,-0.424 4.224,-0.298 1.426,0.122 1.728,0.575 2.225,1.976 0.48,1.353 1.596,3.049 3.047,3.664 -0.467,-0.198 -1.152,-1.669 -0.968,-2.195 0.226,-0.641 1.591,-1.59 2.089,-2.095 0.582,-0.589 1.053,-0.985 1.848,-1.287 l 0,0 c 1.895,-0.72 4.502,-1.13 6.229,0.226 1.248,0.981 1.275,2.949 1.49,4.386 0.108,0.721 0.137,1.957 -0.082,2.614 -0.25,0.751 -0.918,1.328 -1.215,2.091 -0.363,0.936 -0.529,1.986 -0.813,2.95 -0.759,2.562 -2.168,4.868 -2.774,7.441 -0.238,1.003 -0.513,2.049 -1.056,2.909 -0.735,1.164 -1.521,0.993 -2.91,0.989 -1.039,-0.003 -2.172,0.136 -3.2,0.008 -1.142,-0.141 -2.281,-0.591 -3.389,-0.735"
           clip-path="url(#SVGID_2_)"
           inkscape:connector-curvature="0"
           style="fill:#ffffff" />
        <path
           id="path4431"
           d="m 360.482,381.384 c -0.25,2.732 0.717,6.051 -1.67,8.154 -0.002,0 -0.002,0 -0.002,0 -1.232,1.085 -2.343,1.13 -4,1.13 -3.107,-0.001 -6.225,-0.284 -9.389,-0.284 -1.521,0 -3.001,0.067 -4.443,-0.275 -0.648,-0.153 -1.254,-0.362 -1.966,-0.434 -1.163,-0.116 -1.514,-0.59 -2.487,-0.876 -0.869,-0.256 -2.082,0.139 -2.986,0.045 -1.205,-0.127 -2.434,-0.554 -3.602,-0.697 -1.994,-0.245 -4.142,-0.029 -6.157,-0.029 -2.069,0 -4.069,0.035 -6.09,-0.276 -1.226,-0.189 -3.414,0.331 -4.138,-1.022 -0.78,-1.46 0.759,-4.171 1.175,-5.625 0.001,0 0.001,0 0.001,0 0.456,-1.592 0.397,-3.194 0.397,-4.946 0,-0.92 -0.134,-1.961 0.002,-2.871 0.111,-0.741 0.478,-1.317 0.628,-1.992 0.259,-1.16 0.234,-2.339 0.441,-3.498 0.092,-0.514 0.619,-1.405 0.479,-1.929 -0.357,-1.342 -2.836,-1 -3.684,-2.179 -0.944,-1.312 -1.549,-3.356 -3.694,-3.143 -0.042,-0.261 -0.098,-0.519 -0.169,-0.774 -0.6,-0.23 -1.106,-0.425 -1.706,-0.655 -0.061,-0.254 -0.122,-0.508 -0.184,-0.762 -1.246,-0.178 -2.963,-1.246 -4.02,-1.981 -1.498,-1.041 -2.216,-2.812 -3.674,-3.854 -0.872,-0.622 -1.823,-0.972 -2.702,-1.617 -2.069,-1.521 -4.3,-2.261 -6.233,-4.146 -1.316,-1.284 -3.063,-1.69 -4.491,-2.783 -0.54,-0.414 -0.964,-0.954 -1.547,-1.321 -0.701,-0.443 -1.468,-0.489 -2.188,-0.854 -1.25,-0.634 -2.357,-2.137 -2.927,-3.377 -0.556,-1.209 -1.489,-4.323 -3.197,-4.345 -0.67,-1.169 -0.664,-2.041 -1.529,-3.107 -0.598,-0.735 -1.643,-1.626 -2.362,-2.358 -1.681,-1.714 -3.413,-2.863 -5.079,-4.48 -3.644,-3.539 -6.307,-8.069 -10.877,-10.878 -1.908,-1.172 -3.585,-1.979 -5.196,-3.479 -2.401,-2.234 -3.67,-3.012 -6.821,-3.468 -2.704,-0.391 -6.199,-0.459 -8.331,-2.416 -2.91,-2.67 -0.883,-6.274 2.447,-7.004 1.135,-0.249 2.188,-1.104 3.353,-1.55 2.571,-0.984 6.064,-0.568 8.912,-0.568 1.608,0 3.216,-0.001 4.823,0 1.869,10e-4 2.683,0.375 4.25,1.413 1.28,0.85 2.472,1.214 3.912,1.475 h 10e-4 c 2.029,0.367 3.168,1.709 4.463,3.046 0.678,0.699 1.229,1.045 1.834,1.683 0.992,1.048 1.626,2.165 2.783,2.979 2.156,1.518 3.466,3.373 5.432,5.15 3.1,2.803 7.958,7.356 12.449,6.576 0.159,-0.882 -0.042,-1.79 0.177,-2.658 0.208,-0.828 0.932,-1.28 1.22,-1.981 1.465,-3.562 3.28,-7.326 3.88,-11.159 l 0,0 c 0.219,-1.4 0.278,-2.898 0.275,-4.326 -0.006,-2.887 0.272,-5.928 -0.063,-8.778 -0.325,-2.764 -0.898,-5.611 -1.288,-8.407 -0.194,-1.395 -0.476,-2.683 -0.686,-4.092 -0.408,-2.742 -1.175,-5.242 -1.354,-8.049 -0.2,-3.144 -0.198,-6.296 -0.2,-9.445 -0.002,-4.229 -0.472,-8.421 -0.472,-12.843 V 232.2 c 0,-1.877 0.274,-3.491 0.483,-5.164 0.138,-1.097 -0.069,-2.213 0.095,-3.311 0.178,-1.197 1.054,-1.988 1.388,-2.955 0.701,-2.03 0.028,-4.412 0.793,-6.415 0.163,-0.427 1.089,-1.131 1.375,-1.628 0.4,-0.694 0.823,-1.444 1.194,-2.113 l 0,0 c 1.536,-2.771 2.62,-4.992 6.245,-4.974 1.881,0.01 2.221,0.091 3.144,1.639 1.481,2.484 0.811,5.098 1.456,7.725 0.702,2.863 0.835,5.745 0.835,8.721 v 17.008 c 0,5.675 -0.646,11.772 1.097,16.995 0.905,2.711 2.261,4.503 3.051,7.084 0.818,2.67 1.534,5.264 2.074,7.971 1.924,0.371 3.378,-6.133 3.922,-7.392 0.517,-1.196 1.944,-1.919 2.625,-2.953 1.013,-1.538 1.044,-3.477 1.378,-5.215 0.25,-1.298 0.979,-2.424 1.455,-3.723 0.749,-2.042 0.783,-4.591 1.406,-6.627 0.474,-1.548 1.235,-2.901 1.525,-4.44 0.268,-1.426 0.506,-3.058 0.548,-4.506 0.029,-1.027 -0.503,-2.427 0.64,-3.07 0.387,-0.217 1.694,-0.434 2.08,-0.486 1.979,-0.264 3.926,-0.384 5.965,-0.384 1.498,0 3.039,-0.403 4.535,-0.166 2.375,0.376 1.758,2.338 2.051,4.199 0.262,1.659 1.111,3.209 1.447,4.883 0.497,2.475 0.405,4.96 0.736,7.452 0.139,1.041 0.09,2.058 0.126,3.12 0.035,1.015 0.492,1.561 0.597,2.338 0.279,2.075 0.277,4.079 0.526,6.177 0.255,2.146 -0.194,4.373 0.008,6.543 0,0.002 0,0.002 0,0.002 0.243,2.59 1.208,4.75 2.08,7.117 0.646,1.752 3.585,4.534 5.714,3.531 2.075,-0.979 1.24,-6.029 2.106,-7.873 0.131,-0.279 0.454,-0.546 0.645,-0.788 0.119,-0.151 0.038,-0.427 0.134,-0.554 0.137,-0.184 0.485,-0.116 0.582,-0.286 0.52,-0.901 0.604,-2.038 0.907,-3.024 0.298,-0.965 0.519,-1.852 0.901,-2.773 0.369,-0.891 0.509,-1.871 0.764,-2.73 0.362,-1.219 1.215,-2.221 1.393,-3.503 0.162,-1.168 0.133,-1.81 0.699,-2.932 1.283,-2.549 2.356,-5.169 3.344,-7.846 0.672,-1.825 1.289,-3.68 2.123,-5.44 0.783,-1.653 1.97,-3.172 2.414,-4.975 0.223,-0.899 0.643,-1.836 1.028,-2.636 0.499,-1.035 1.048,-1.981 1.485,-3.053 0.254,-0.626 0.5,-1.559 0.869,-2.113 0.521,-0.778 1.443,-1.18 2.275,-1.273 2.023,-0.227 5.215,-0.407 5.695,1.99 1.134,5.642 0.438,11.39 -1.85,16.681 l 0,0 c -0.496,1.151 -1.08,1.955 -1.437,3.14 -0.526,1.751 -0.394,3.684 -0.769,5.481 -0.422,2.016 -1.172,3.799 -1.905,5.718 -0.331,0.867 -0.71,1.729 -1.106,2.669 -0.817,1.951 -0.666,4.241 -1.549,6.147 -0.859,1.856 -1.395,4.115 -1.383,6.227 0.018,3.098 -0.573,6.158 -0.873,9.23 -0.372,3.809 -0.412,7.638 -0.738,11.449 -0.242,2.808 0.902,5.729 0.902,8.562 0,1.588 -0.266,3.345 0.434,4.783 0.834,1.719 0.994,4.011 0.983,6.023 -0.019,3.457 0.679,6.597 1.056,9.923 0.211,1.87 0.717,3.453 0.717,5.385 0,1.986 0.011,4.172 -0.32,6.208 -0.303,1.857 -1.167,3.575 -1.209,5.466 -0.096,4.232 -1.67,7.771 -2.721,11.822 -0.418,1.61 -1.33,3.499 -2.207,4.779 -0.266,0.388 -0.65,0.762 -0.896,1.151 -0.247,0.394 -0.285,0.844 -0.513,1.201 l 0,0 c -0.484,0.76 -1.395,0.928 -1.85,1.693 -0.514,0.87 -0.67,2.254 -0.904,3.231 -0.438,1.82 -0.762,4.108 -1.693,5.74 l 0,0 c -0.991,1.739 -0.605,3.309 -1.119,5.23"
           clip-path="url(#SVGID_2_)"
           inkscape:connector-curvature="0"
           style="fill:#ffffff" />
      </g>
      <g
         id="g4433"
         transform="translate(-316.68103,3.360011)">
        <defs
           id="defs4435">
          <rect
             height="364.246"
             width="257.54999"
             transform="matrix(-0.9978,-0.0658,0.0658,-0.9978,619.3387,635.6196)"
             y="125.487"
             x="191.362"
             id="SVGID_3_" />
        </defs>
        <clipPath
           id="SVGID_4_">
          <use
             id="use4439"
             overflow="visible"
             xlink:href="#SVGID_3_"
             style="overflow:visible"
             x="0"
             y="0"
             width="1"
             height="1" />
        </clipPath>
        <path
           id="path4441"
           d="m 308.651,223.351 c -0.354,0.165 -0.071,2.778 -0.08,3.391 -0.015,1.202 -0.146,2.418 -0.165,3.603 -0.017,1.052 -0.25,2.623 0.736,3.152 0.901,0.484 2.377,0.45 3.43,0.519 5.486,0.362 11.045,0.38 16.534,1.09 2.753,0.357 5.45,0.944 8.243,1.266 2.404,0.278 4.904,0.353 7.25,0.766 2.326,0.41 4.844,-0.002 7.277,0.281 2.461,0.284 5.037,0.496 7.457,0.91 1.811,0.307 3.607,0.698 5.424,0.978 0.746,0.115 1.416,0.127 2.135,0.335 0.279,0.082 1.971,0.634 2.152,0.253 0.284,-0.587 0.346,-1.293 0.646,-1.923 0.361,-0.754 0.607,-1.561 0.859,-2.356 0.492,-1.552 0.844,-3.068 1.394,-4.553 -2.081,-0.839 -4.776,-0.576 -7.005,-1.04 -2.544,-0.53 -5.282,-0.477 -7.896,-0.807 -1.22,-0.154 -2.369,-0.445 -3.65,-0.53 -1.213,-0.079 -2.396,-0.23 -3.592,-0.31 -2.597,-0.171 -4.939,-0.902 -7.515,-1.073 -1.321,-0.087 -2.461,-0.329 -3.726,-0.534 -1.199,-0.194 -2.459,-0.206 -3.659,-0.402 -1.214,-0.198 -2.33,-0.572 -3.642,-0.658 -1.49,-0.098 -2.961,-0.191 -4.448,-0.223 -5.106,-0.106 -10.096,-1.026 -15.176,-1.361 -1.102,-0.072 -2.052,-0.279 -3.156,-0.352"
           clip-path="url(#SVGID_4_)"
           inkscape:connector-curvature="0"
           style="fill:#ed8c32" />
        <path
           id="path4443"
           d="m 383.514,232.19 c -0.297,0.583 -0.105,1.602 -0.152,2.302 -0.058,0.872 -0.133,1.715 -0.38,2.507 -0.411,1.324 -1.124,3.155 -1.014,4.545 1.153,-0.065 2.231,0.532 3.414,0.67 1.305,0.153 2.632,0.112 3.937,0.26 1.34,0.151 2.557,0.605 3.873,0.761 1.297,0.153 2.611,0.32 3.876,0.4 2.372,0.151 4.673,0.597 7.104,0.757 1.219,0.081 2.458,0.117 3.669,0.259 1.213,0.141 2.196,-0.034 3.329,-0.086 0.881,-0.041 2.617,0.209 2.939,-0.747 0.328,-0.972 -0.003,-2.519 0.166,-3.601 0.088,-0.562 0.273,-0.997 0.531,-1.483 0.171,-0.321 0.709,-0.983 0.756,-1.303 0.122,-0.846 -2.145,-1.214 -2.891,-1.371 -4.881,-1.024 -9.829,-1.909 -14.868,-2.493 -2.577,-0.3 -5.233,-0.411 -7.808,-0.805 -1.113,-0.169 -2.258,-0.221 -3.394,-0.296 -0.876,-0.057 -2.333,-0.402 -3.099,-0.131"
           clip-path="url(#SVGID_4_)"
           inkscape:connector-curvature="0"
           style="fill:#ed8c32" />
        <path
           id="path4445"
           d="m 280.694,221.002 c -0.335,-0.044 -0.029,1.96 -0.01,2.383 0.036,0.828 0.068,1.586 0.053,2.462 -0.031,1.796 -0.637,3.425 -0.834,5.136 1.989,0.296 4.111,0.499 6.233,0.639 2.132,0.141 4.201,0.373 6.323,0.406 0.085,-1.81 -0.134,-3.665 0.087,-5.549 0.104,-0.893 0.433,-1.647 0.531,-2.566 0.075,-0.7 0.365,-1.762 -0.34,-2.107 -0.735,-0.358 -2.22,-0.119 -3.048,-0.211 -2,-0.226 -3.932,-0.477 -5.958,-0.61 -1.002,-0.066 -2.173,0.129 -3.103,-0.061"
           clip-path="url(#SVGID_4_)"
           inkscape:connector-curvature="0"
           style="fill:#ed8c32" />
      </g>
      <g
         id="g4447"
         transform="translate(-316.68103,3.360011)">
        <defs
           id="defs4449">
          <rect
             height="185.306"
             width="184.222"
             transform="matrix(-0.9978,-0.0658,0.0658,-0.9978,635.6124,611.1248)"
             y="202.442"
             x="235.759"
             id="SVGID_5_" />
        </defs>
        <clipPath
           id="SVGID_6_">
          <use
             id="use4453"
             overflow="visible"
             xlink:href="#SVGID_5_"
             style="overflow:visible"
             x="0"
             y="0"
             width="1"
             height="1" />
        </clipPath>
        <path
           id="path4455"
           d="m 328.184,277.247 c -1.199,4.783 -1.271,9.502 -0.064,13.506 0.387,1.287 1.594,2.817 2.719,3.85 1.844,1.693 4.72,2.632 7.162,4.145 0.442,0.273 0.67,0.665 1.093,0.953 0.403,0.275 0.977,0.403 1.442,0.683 0.826,0.497 1.434,1.241 2.196,1.761 0.854,0.581 1.765,0.969 2.535,1.634 0.703,0.608 1.563,1.212 1.849,2.033 -1.546,0.03 -2.455,-1.596 -3.475,-2.432 -1.305,-0.313 -1.854,-1.312 -2.846,-1.951 -0.534,-0.345 -1.348,-0.502 -1.924,-0.862 -0.65,-0.4 -1.08,-1.056 -1.724,-1.434 -1.674,-0.986 -3.563,-1.605 -5.119,-2.54 -0.635,-0.381 -1.282,-1.048 -1.878,-1.594 -0.587,-0.538 -1.349,-1.092 -1.712,-1.581 -1.306,-1.749 -1.949,-5.383 -2.083,-8.507 -0.108,-2.566 0.49,-5.612 1.344,-7.842 l 0.178,0.231 0.307,-0.053 z"
           clip-path="url(#SVGID_6_)"
           inkscape:connector-curvature="0"
           style="fill:#1b181c" />
        <path
           id="path4457"
           d="m 349.788,315.384 c -2.589,-0.714 -4.36,-2.064 -6.224,-3.348 -1.681,-0.619 -3.314,-1.234 -4.992,-1.944 -1.596,-0.676 -2.949,-1.674 -4.471,-2.351 -0.574,-0.256 -1.25,-0.325 -1.781,-0.558 -1.426,-0.624 -2.885,-1.549 -4.121,-2.621 -2.183,-0.637 -3.934,-1.975 -5.748,-3.023 -1.856,-1.073 -3.958,-1.803 -5.4,-3.293 -2.091,-0.547 -3.381,-1.716 -4.944,-2.675 l 0.029,-0.439 c 0.135,-0.019 0.173,-0.136 0.338,-0.124 1.199,0.695 2.292,1.454 3.658,2.149 2.281,1.162 4.545,2.654 6.841,3.976 1.932,1.112 4.008,1.942 5.914,3.034 0.946,0.542 1.631,1.164 2.534,1.635 1.97,1.025 4.237,1.905 6.251,2.909 2.104,1.048 4.618,1.773 6.745,2.941 0.937,0.515 1.709,1.391 2.681,1.938 0.994,0.562 2.323,0.738 3.202,1.532 l -0.286,0.084 -0.226,0.178 z"
           clip-path="url(#SVGID_6_)"
           inkscape:connector-curvature="0"
           style="fill:#1b181c" />
        <path
           id="path4459"
           d="m 350.365,315.398 -0.064,-0.274 c 0.521,0.01 0.993,0.06 1.132,0.369 -0.149,0.571 -0.978,0.327 -1.325,0.059 l 0.257,-0.154 z"
           clip-path="url(#SVGID_6_)"
           inkscape:connector-curvature="0"
           style="fill:#1b181c" />
        <path
           id="path4461"
           d="m 322.55,312.562 c -0.843,-0.602 -1.658,-1.155 -2.352,-1.919 -0.483,-0.533 -0.707,-1.314 -1.2,-1.842 -0.679,-0.725 -1.736,-1.257 -2.516,-1.927 -0.798,-0.688 -1.421,-1.51 -2.168,-2.2 -1.561,-1.443 -3.622,-2.322 -5.206,-3.72 -0.031,-0.24 0.172,-0.242 0.193,-0.428 0.135,-0.02 0.174,-0.138 0.339,-0.125 5.321,3.307 9.461,7.535 13.423,11.898 l -0.286,0.083 -0.227,0.18 z"
           clip-path="url(#SVGID_6_)"
           inkscape:connector-curvature="0"
           style="fill:#1b181c" />
        <path
           id="path4463"
           d="m 337.015,334.468 0.131,-0.239 c 0.519,1.09 1.612,2.429 1.414,3.618 -1.16,-0.625 -1.377,-1.982 -1.772,-3.201 l 0.227,-0.178 z"
           clip-path="url(#SVGID_6_)"
           inkscape:connector-curvature="0"
           style="fill:#1b181c" />
        <path
           id="path4465"
           d="m 345.155,237.836 c -0.925,2.659 -0.03,4.938 0.157,7.646 0.127,1.866 0.097,3.662 0.32,5.162 0.254,1.71 0.963,3.349 1.316,5.079 0.648,3.172 0.346,6.584 0.669,9.883 0.319,3.244 0.582,6.344 1.522,9.5 1.679,1.236 1.695,3.767 4.693,3.979 1.758,-3.079 2.167,-6.581 3.461,-9.905 0.455,-1.168 1.094,-2.228 1.549,-3.422 1.379,-3.63 2.487,-7.488 3.721,-11.354 1.59,-4.985 4.309,-9.595 5.744,-14.453 -7.764,-1.056 -14.959,-1.847 -22.961,-2.543 -0.191,0.012 -0.191,0.219 -0.191,0.428 m -36.439,-3.577 c 0.005,-0.081 -0.123,-0.176 -0.164,-0.012 0.669,3.286 0.627,7.674 0.93,10.928 0.309,3.311 0.813,5.84 1.241,8.746 0.919,6.259 2.452,12.139 3.952,17.737 2.921,-0.83 4.367,-3.378 5.504,-5.806 1.312,-2.801 2.178,-6.114 2.958,-9.791 0.409,-1.923 1.023,-3.92 1.702,-5.762 0.226,-0.613 0.71,-1.088 0.938,-1.7 0.304,-0.815 0.399,-1.778 0.666,-2.6 0.975,-2.986 1.527,-6.989 1.179,-10.348 -5.911,-0.936 -12.943,-0.919 -18.906,-1.392 m 103.212,8.127 c -5.132,-1.33 -10.482,-1.129 -15.733,-1.917 -3.703,-0.557 -8.831,-1.821 -13.111,-1.6 -0.851,0.176 -0.84,1.228 -0.967,2.138 6.228,0.799 13.942,1.701 20.494,2.381 2.479,0.256 5.03,0.655 7.228,0.623 1.133,-0.016 3.486,0.022 3.221,-1.256 0.042,-0.736 -0.886,0.144 -1.132,-0.369 m 8.611,-0.311 c 0.528,0.119 0.771,-0.05 1.161,-0.072 -0.052,-0.59 -0.062,-0.446 0.067,-1.023 -0.539,-0.045 -0.602,-0.457 -1.297,-0.38 -0.3,0.466 -0.24,1.106 0.069,1.475 m -15.511,-2.787 c -0.511,-0.101 -0.743,0.08 -0.697,0.542 0.231,0.029 0.465,0.056 0.504,-0.114 l 0.241,0.09 0.243,0.09 c 0.448,0.016 0.313,0.264 0.657,0.043 l 0.242,0.09 0.252,-0.058 c 0,0.364 0.553,0.079 0.656,0.044 l 0.069,0.225 0.251,-0.057 c 0.283,-0.012 0.41,0.277 0.492,0.032 l 0.16,0.084 0.16,0.084 c 0.203,0.201 0.594,0.227 0.822,0.054 l 0.068,0.225 0.252,-0.057 0.492,0.033 0.16,0.084 0.168,-0.062 -0.008,0.146 c 0.359,0.104 0.254,-0.264 0.512,-0.26 l 0.068,0.225 0.242,0.089 c 0.104,0.268 0.297,0.04 0.493,0.032 l 0.067,0.224 0.252,-0.056 c 0.442,0.136 0.351,-0.27 0.678,-0.248 l 0.068,0.223 0.252,-0.055 c 0.358,0.103 0.252,-0.264 0.512,-0.261 l 0.068,0.225 0.241,0.089 c 0.515,0.16 0.632,-0.086 0.841,-0.238 l 0.068,0.224 0.243,0.09 c 0.505,0.201 0.414,-0.203 0.676,-0.248 l 0.067,0.224 0.244,0.089 c 0.262,0.059 0.291,-0.12 0.502,-0.114 l 0.066,0.225 0.253,-0.057 0.822,0.055 0.009,-0.147 0.16,0.084 0.16,0.084 c 0.643,0.132 0.75,-0.279 0.87,-0.676 -0.339,-0.086 -0.442,0.071 -0.667,0.103 l -0.243,-0.089 -0.251,0.057 c -0.064,-0.137 -0.127,-0.272 -0.309,-0.316 -0.082,0.126 -0.162,0.253 -0.349,0.272 l -0.067,-0.225 -0.252,0.057 c -0.104,-0.269 -0.297,-0.041 -0.494,-0.033 l -0.241,-0.089 -0.252,0.056 c -0.104,-0.268 -0.298,-0.041 -0.494,-0.032 l -0.065,-0.226 -0.254,0.057 c -0.516,-0.159 -0.523,0.197 -0.841,0.239 l -0.067,-0.224 -0.242,-0.091 -0.33,-0.022 c 0.017,0.172 -0.053,0.259 -0.184,0.284 l -0.066,-0.225 -0.252,0.057 c 0.004,-0.143 -0.193,-0.128 -0.32,-0.17 0.016,0.173 -0.053,0.26 -0.184,0.283 l -0.067,-0.225 -0.252,0.057 c 0.146,-0.479 -0.325,-0.258 -0.483,-0.18 l -0.068,-0.224 -0.252,0.057 c -0.219,0.036 -0.275,0.24 -0.512,0.26 l -0.068,-0.226 -0.252,0.057 c 0,-0.363 -0.553,-0.079 -0.657,-0.043 l -0.067,-0.224 -0.252,0.057 c -0.287,-0.305 -0.658,-0.143 -0.832,0.091 l -0.066,-0.225 -0.243,-0.089 c -0.263,-0.057 -0.292,0.12 -0.503,0.115 l -0.068,-0.225 -0.251,0.056 c -0.517,-0.159 -0.633,0.087 -0.842,0.238 l -0.068,-0.225 -0.241,-0.089 c -0.379,-0.072 -0.633,-0.018 -0.832,0.092 l -0.068,-0.224 -0.25,0.056 z m -4.102,-0.416 c -0.598,-0.753 -0.99,0.954 -0.193,0.426 l 0.068,0.226 0.25,-0.057 c 0.233,0.028 0.465,0.054 0.504,-0.114 l 0.16,0.084 0.159,0.084 c 0.339,0.084 0.442,-0.071 0.667,-0.104 l 0.068,0.226 0.251,-0.057 c 0.432,0.073 0.444,-0.276 0.532,-0.551 -0.359,-0.106 -0.252,0.263 -0.513,0.259 l -0.067,-0.224 -0.242,-0.09 c -0.104,-0.27 -0.297,-0.041 -0.493,-0.032 l -0.067,-0.225 -0.252,0.057 c -0.359,-0.105 -0.253,0.262 -0.514,0.258 l -0.066,-0.224 -0.252,0.058 z M 348.85,234.41 c -8.729,-0.731 -16.219,-1.165 -24.983,-1.942 -1.913,-0.17 -3.875,-0.124 -5.592,-0.369 -0.704,-0.101 -1.432,-0.458 -2.109,-0.58 -2.594,-0.467 -5.468,-0.481 -7.751,-0.217 0.027,0.673 0.169,1.257 0.03,2.058 1.306,0.417 2.616,0.055 3.957,0.113 10.147,0.432 20.669,2.275 31.03,2.929 3.01,0.19 5.662,0.51 8.535,0.854 5.631,0.678 11.981,0.87 16.555,1.973 0.44,-0.645 0.822,-1.35 0.978,-2.285 -6.632,-1.212 -13.436,-1.932 -20.65,-2.534 m -68.176,-5.818 c -0.315,0.669 -0.411,1.559 -0.648,2.307 4.19,0.211 7.915,0.782 12.163,0.948 l 0.174,-2.632 c -4.251,-0.015 -7.82,-0.491 -11.689,-0.623 m 127.711,7.393 c -0.844,-0.151 -1.679,-0.484 -2.603,-0.611 -2.082,-0.285 -4.33,-0.43 -6.56,-0.726 -4.498,-0.597 -10.552,-1.445 -15.617,-1.178 0.172,0.848 0.016,1.483 -0.155,2.34 2.789,-0.111 5.192,0.53 7.876,0.812 7.505,0.791 15.518,1.461 22.488,2.219 0.175,-0.603 0.412,-1.14 0.763,-1.566 -1.923,-1.071 -4.051,-0.905 -6.192,-1.29 m -99.691,-8.924 c 10.416,0.9 20.588,1.872 31.03,2.928 3.33,0.338 6.519,1.001 9.821,1.383 4.708,0.542 9.457,0.762 14.128,1.225 1.771,0.174 3.91,0.636 5.562,0.807 0.466,0.048 1.328,0.554 1.654,-0.037 0.406,-0.265 0.349,-1 0.59,-1.431 -7.704,-1.143 -15.883,-2.101 -24.248,-3.067 -1.502,-0.174 -3.088,0.041 -4.614,-0.158 -0.874,-0.113 -1.729,-0.472 -2.603,-0.612 -10.555,-1.678 -20.718,-1.72 -30.867,-2.916 -0.642,0.128 -0.287,1.268 -0.453,1.878 m -44.326,-6.74 c -0.254,0.018 -0.04,0.238 0.145,0.303 3.638,0.288 8.652,0.386 12.666,0.835 1.153,0.128 2.354,0.7 3.29,0.218 -4.892,-0.731 -11.224,-1.077 -16.101,-1.356 m 64.441,4.836 c 0.095,0.459 -0.469,0.252 -0.375,0.71 4.209,0.519 9.72,1.103 14.078,1.957 -0.289,-2.738 -1.233,-5.972 -2.024,-9.386 -0.363,-1.564 -0.554,-3.201 -0.843,-4.754 -0.655,-3.52 -1.996,-7.599 -5.74,-8.162 -2.325,-0.349 -3.534,0.208 -5.186,0.979 -2.133,1.821 -1.221,5.29 -0.879,8.313 0.365,3.23 0.59,6.42 0.834,9.894 l -0.1,0.262 0.235,0.187 z m 21.178,-10.497 c 0.653,-1.96 1.757,-4.063 1.557,-6.065 -0.21,-2.09 -2.61,-4.208 -4.675,-4.273 -1.824,-0.059 -3.372,0.853 -4.236,1.63 -1.005,0.897 -2.896,2.457 -3.058,3.763 -0.073,0.583 0.336,1.457 0.513,2.236 1.297,5.707 2.1,10.94 3.565,16.095 0.472,-0.146 1.146,-0.087 1.819,-0.027 1.615,-3.929 3.104,-9.131 4.515,-13.359 m -50.807,84.023 c -2.257,6.344 -5.209,11.979 -7.794,17.99 2.094,-0.156 3.548,-1.742 5.011,-3.342 1.528,-1.671 2.223,-2.854 3.463,-4.911 0.999,-1.658 2.102,-3.865 2.872,-5.977 0.326,-0.898 0.168,-2.004 1.006,-2.725 0.822,0.271 0.186,1.265 0.048,1.766 -0.496,1.812 -1.463,3.914 -2.03,5.738 -0.039,0.117 -0.175,0.137 -0.183,0.282 1.269,-0.882 2.261,-2.228 3.201,-3.46 0.295,-0.385 0.241,-1.254 1.064,-1.104 0.805,0.237 -0.036,0.979 -0.251,1.305 -1.123,1.702 -2.852,3.922 -4.944,4.814 -1.957,3.214 -4.239,6.099 -7.467,8.024 0,0.323 0.693,0.107 0.977,0.209 l 0.201,0.205 0.273,0.121 c -0.785,0.359 -4.791,0.446 -6.289,0.172 -0.842,-0.153 -1.335,-0.775 -2.225,-1.321 -0.795,-0.485 -1.584,-0.87 -2.226,-1.32 -0.725,-0.51 -1.256,-1.038 -1.878,-1.593 -0.651,-0.579 -1.516,-0.937 -2.052,-1.456 -0.887,-0.862 -1.693,-2.109 -2.603,-3.109 -0.892,-0.98 -1.789,-2.202 -2.777,-2.972 -0.715,-0.561 -1.703,-0.749 -2.4,-1.188 -0.435,-0.272 -0.814,-0.777 -1.249,-1.111 -1.231,-0.942 -2.208,-1.756 -3.271,-3.005 -0.914,0.391 -1.509,1.223 -2.273,1.906 -0.708,0.633 -1.681,1.24 -2.118,2.063 -0.584,1.097 -0.335,2.568 -1.083,3.894 -1.132,-0.295 -0.463,-1.499 -0.359,-2.08 0.576,-3.222 3.251,-4.452 4.885,-6.432 -0.692,-1.081 -2.229,-1.505 -3.145,-2.41 -3.103,-0.895 -6.121,-2.569 -10.373,-3.035 -2.209,-0.242 -4.551,0.017 -6.628,0.297 -1.655,0.226 -3.204,0.267 -4.509,0.732 -1.807,0.644 -3.06,1.953 -4.615,2.338 -0.911,1.426 -1.914,4.055 -0.357,5.411 0.357,0.23 0.95,0.278 0.939,0.795 1.298,-0.004 2.304,0.763 3.562,1.117 0.617,0.173 1.314,0.101 1.963,0.275 0.852,0.23 1.85,0.741 2.739,1.062 1.712,0.614 3.178,0.773 4.007,1.88 l -0.287,0.083 -0.226,0.178 c -0.692,-0.441 -2.065,-0.711 -3.551,-1.263 -0.969,-0.362 -1.924,-0.953 -2.894,-1.221 -2.486,-0.683 -5.635,-0.923 -6.977,-1.929 -2.163,-1.621 -1.09,-4.713 0.289,-6.882 1.754,-1.001 3.653,-2.298 6.298,-2.815 2.497,-0.486 5.375,-0.89 8.156,-0.93 1.787,-0.025 3.731,0.315 5.41,0.65 0.877,0.175 1.817,0.267 2.448,0.455 1.734,0.514 3.058,2.147 4.983,2.091 1.245,1.286 3.192,1.632 4.442,2.79 0.671,0.621 0.995,1.541 1.674,2.166 1.56,1.436 3.319,2.349 5.39,3.438 1.869,1.923 3.728,3.854 5.217,6.07 1.202,1.008 2.606,1.859 3.426,3.163 1.809,0.061 3.064,2.715 5.119,2.542 1.104,-0.095 2.404,-2.443 3.076,-4.056 0.726,-1.745 1.715,-3.531 2.147,-4.998 0.591,-2.013 0.804,-4.758 0.752,-6.413 -0.022,-0.754 -0.315,-1.459 -0.348,-2.226 -0.033,-0.771 0.187,-1.509 0.154,-2.34 -0.037,-0.932 0.023,-2.043 0.048,-3.227 0.016,-0.735 -0.335,-1.534 -0.349,-2.226 -0.095,-4.645 -0.322,-9.046 -0.941,-13.278 -0.075,-0.512 -0.36,-0.984 -0.398,-1.496 -0.149,-1.982 0.044,-3.825 -0.117,-5.734 -0.096,-1.143 -0.138,-2.326 -0.272,-3.395 -0.08,-0.65 -0.442,-1.277 -0.532,-1.943 -0.373,-2.734 -0.027,-5.458 -0.128,-8.086 -0.048,-1.269 -0.064,-2.433 -0.088,-3.677 -0.041,-2.092 -0.63,-4.203 -0.572,-6.353 0.129,-4.856 0.197,-9.792 0.48,-14.8 -2.984,0.155 -8.756,-1.596 -11.824,-1.073 -0.712,0.122 -0.886,0.472 -1.373,0.79 -2.495,-1.003 -6.553,-1.208 -9.793,-1.819 -6.952,-1.315 -13.334,-2.299 -20.222,-3.978 -1.939,-1.05 -5.027,-1.9 -3.805,-4.95 3.411,-0.866 6.939,-1.829 11.05,-2.207 0.827,-0.077 1.764,0.139 2.641,0.026 1.814,-0.233 3.114,-1.052 5.515,-0.957 4.077,0.161 8.409,0.72 12.83,0.845 4.258,0.122 8.533,0.719 12.665,0.836 1.141,0.032 2.239,-0.017 3.271,0.509 0.371,-1.821 1.041,-3.778 1.702,-5.762 0.848,-2.541 1.704,-4.815 3.075,-6.552 0.355,-0.449 0.563,-0.986 0.909,-1.261 1.091,-0.863 2.564,-0.828 3.435,-1.977 0.898,0.255 1.687,-0.245 2.487,-0.131 1.59,0.233 2.887,1.866 3.435,3.019 1.68,3.527 0.506,10.844 0.439,15.887 5.981,0.867 12.58,0.965 19.061,1.552 -0.258,-2.434 -0.061,-5.443 -0.428,-8.545 -0.486,-4.126 -2.127,-8.649 0.898,-11.102 1.073,-0.87 2.461,-1.062 3.918,-1.797 3.742,0.28 5.907,1.788 6.995,4.133 1.675,-1.234 2.839,-3.597 4.915,-4.376 4.611,-1.73 9.285,1.293 8.516,6.141 -0.197,1.252 -0.943,2.904 -1.449,4.457 -1.307,4.012 -3.43,9.562 -4.188,13.381 7.539,1.267 16.692,2.088 24.897,3.257 1.754,-2.535 4.438,-6.221 9.181,-3.947 2.096,1.005 2.875,2.414 2.787,5.324 5.141,-0.252 10.989,0.813 16.585,1.534 4.009,0.517 7.89,0.855 11.465,1.49 1.595,0.283 3.113,0.825 4.365,1.464 1.176,0.598 2.168,1.495 3.329,2.128 1.595,0.869 3.572,1.169 4.287,2.632 -0.602,0.959 -2.055,0.903 -3.213,1.11 -4.02,0.715 -7.953,2.218 -12.993,1.64 -8.144,-0.938 -17.535,-1.437 -25.429,-2.705 -1.211,2.056 -1.377,4.475 -2.127,7.201 -0.313,1.144 -0.855,2.283 -1.054,3.455 -0.096,0.563 -10e-4,1.169 -0.116,1.755 -0.297,1.506 -0.902,3.039 -1.295,4.613 -0.729,2.92 -2.048,5.702 -2.892,8.769 -0.882,3.209 -1.562,6.784 -2.194,10.721 -0.322,2.017 -0.908,3.978 -1.217,5.941 -0.395,2.492 0.014,4.793 0.176,7.354 0.206,3.249 0.293,6.69 0.486,10.164 0.168,3.03 1.094,5.893 0.544,9.287 l -0.297,-0.094 -0.207,0.205 c -0.17,-4.978 -0.845,-9.918 -1.164,-14.905 -0.159,-2.494 -0.106,-5.002 -0.33,-7.513 -0.047,-0.524 -0.378,-1.099 -0.388,-1.64 -0.036,-1.979 0.859,-3.906 1.217,-5.941 0.488,-2.762 0.607,-5.669 1.054,-8.447 0.992,-6.178 4.306,-11.717 5.482,-17.995 0.571,-3.058 1.202,-6.007 1.903,-8.833 0.354,-1.426 0.916,-2.787 1.267,-4.174 0.577,-2.283 1.505,-4.367 1.788,-7.078 0.175,-1.684 -0.032,-4.18 -0.649,-5.182 -1.171,-1.903 -4.587,-2.523 -6.53,-1.165 -1.051,0.733 -2.265,2.189 -2.873,3.481 -0.432,0.916 -0.568,2.11 -1.035,3.163 -0.861,1.941 -1.775,3.89 -2.533,5.854 -0.408,1.055 -0.482,2.21 -0.871,3.172 -0.143,0.357 -0.561,0.742 -0.734,1.126 -0.203,0.445 -0.401,0.843 -0.416,1.296 0.473,1.851 3.512,1.708 5.109,2.686 0.514,0.157 1.387,0.031 1.451,0.537 -0.866,1.092 -2.238,-0.223 -3.27,-0.511 -0.496,-0.137 -1.067,-0.112 -1.472,-0.243 -0.94,-0.305 -1.633,-0.741 -2.235,-1.175 -2.699,4.363 -4.207,10.668 -5.822,15.623 1.086,1.806 4.632,2.363 7.056,3.254 0.332,0.123 1.173,-0.075 0.958,0.506 -0.671,0.645 -1.533,0.056 -2.303,-0.153 -2.166,-0.591 -4.618,-1.34 -6.116,-2.459 -0.722,2.017 -2.034,4.208 -2.755,6.72 -0.346,1.2 -0.592,2.573 -1.074,3.748 -0.495,1.2 -1.271,2.252 -1.372,3.286 -0.084,0.854 0.39,1.523 0.349,2.226 -0.828,0.473 -0.64,-0.832 -1.433,-0.828 -2.521,0.071 -3.214,-0.779 -4.307,-2.34 -1.158,-1.654 -1.624,-2.403 -2.167,-4.695 -1.146,-4.824 -0.766,-10.619 -1.446,-15.662 -0.269,-1.987 -1.131,-3.804 -1.442,-5.674 -0.191,-1.147 -0.144,-2.339 -0.263,-3.541 -0.329,-3.324 -0.573,-7.115 -0.97,-10.345 -4.762,-0.783 -10.127,-1.098 -15.085,-1.729 0.138,4.934 0.055,10.038 0.864,14.45 l 0.201,0.204 0.273,0.12 c -0.271,0.192 -0.18,0.753 -0.706,0.688 -0.295,3.121 0.167,6.685 0.495,10.019 0.129,1.308 -0.094,2.537 0.088,3.677 0.404,2.526 1.456,5.138 3.369,6.536 1.074,0.785 2.66,0.723 3.677,1.857 -0.063,0.666 -0.938,0.018 -1.151,-0.076 -3.129,-0.521 -5.263,-2.707 -6.106,-5.102 -0.603,-1.709 -0.578,-3.75 -0.755,-6.07 -0.199,-2.59 -0.58,-5.462 -0.622,-8.118 -0.048,-3.032 0.239,-6.004 -0.255,-8.681 -0.849,0.933 -0.656,2.35 -1.062,3.602 -0.196,0.605 -0.704,1.195 -0.948,1.847 -0.28,0.748 -0.519,1.601 -0.821,2.442 -1.149,3.199 -1.558,7.914 -2.881,11.117 -0.231,0.557 -0.692,1.026 -0.929,1.553 -0.302,0.675 -0.336,1.369 -0.619,1.871 -0.342,0.603 -1.126,1.217 -1.606,1.801 -1.146,1.397 -1.398,1.835 -3.153,2.729 -0.608,0.311 -1.254,0.725 -1.703,0.77 -1.634,0.164 -2.987,-0.422 -3.193,-1.678 1.026,-0.343 1.506,0.834 2.757,0.77 0.058,-1.506 -0.421,-2.994 -0.862,-4.463 -1.32,-4.407 -2.146,-9.154 -3.051,-13.859 -1.153,-2.823 -6.931,-3.935 -10.237,-2.584 l -0.202,-0.205 -0.273,-0.12 c 2.424,-1.8 8.718,-1.006 10.499,1.134 -1.164,-6.91 -1.366,-14.566 -2.027,-21.868 -0.847,-0.544 -1.82,-0.99 -2.535,-1.635 -1.716,0.183 -3.545,0.252 -5.313,0.383 l 0.1,-0.261 -0.235,-0.187 c 1.426,-0.738 4.022,-0.289 5.67,-0.802 0.868,0.295 1.327,0.91 2.235,1.175 0.478,-1.597 0.203,-3.636 0.222,-5.859 0.039,-4.877 0.787,-10.391 -0.256,-13.675 -0.527,-1.657 -1.91,-3.694 -4.751,-3.102 -6.463,2.507 -7.31,11.492 -9.285,18.037 l -0.241,-0.089 -0.242,-0.089 c -3.901,-0.192 -8.036,-0.695 -11.98,-1.231 0.131,0.639 -0.033,1.505 0.195,2.069 3.638,0.415 8.285,1.187 11.842,0.781 l 0.179,0.231 0.306,-0.052 c -0.298,2.709 0.054,5.413 -0.365,8.053 -0.079,0.496 -0.377,0.949 -0.426,1.439 -0.076,0.756 0.18,1.637 0.175,2.362 -0.03,3.604 -0.185,7.257 -0.221,10.852 -0.015,1.616 0.458,3.152 0.514,4.733 0.052,1.45 -0.022,2.904 0.059,4.116 0.172,2.559 -0.076,5.306 0.148,7.792 0.128,1.424 0.44,3.578 0.61,5.767 0.101,1.29 0.456,2.662 0.417,3.7 -0.018,0.479 -0.268,0.98 -0.261,1.451 0.011,0.709 0.255,1.445 0.349,2.225 0.574,4.768 1.172,10.026 1.29,15.504 0.036,1.667 -0.225,3.324 -0.163,4.982 0.061,1.642 0.566,4.118 0.069,6.467 1.028,-2.235 2.109,-4.414 3.085,-6.699 l 0.177,0.232 0.308,-0.053 z"
           clip-path="url(#SVGID_6_)"
           inkscape:connector-curvature="0"
           style="fill:#1b181c" />
        <path
           id="path4467"
           d="m 275.903,334.258 0.132,-0.241 c 2.352,1.824 3.838,4.32 6.202,6.136 0.179,0.184 0.153,0.53 0.107,0.888 4.951,2.775 9.576,6.301 14.739,9.488 3.753,2.32 6.866,5.052 10.054,7.86 1.061,0.935 1.889,2.08 2.952,2.838 1.665,1.186 5.614,3.487 7.818,1.689 0.987,0.234 1.123,0.961 2.236,1.176 1.595,0.307 6.004,-1.084 6.705,1.028 -1.079,0.155 -1.753,-0.436 -2.941,-0.486 -1.36,-0.058 -2.615,0.528 -3.822,0.336 -1.373,-0.222 -2.155,-1.513 -3.261,-0.655 -0.925,5.627 -0.919,11.49 -2.124,17.187 -0.211,0.993 -0.571,2.032 -0.861,3.026 -0.247,0.845 -0.44,1.994 -1.316,2.411 -0.886,-0.469 0.227,-1.727 0.503,-2.611 0.633,-2.028 1.034,-4.152 1.412,-6.368 0.616,-3.615 0.847,-8.548 1.361,-13.126 -0.358,-0.416 -1.46,-0.253 -1.945,-0.569 -3.667,-1.216 -5.764,-3.906 -8.352,-6.13 -3.838,-3.297 -8.074,-6.244 -12.436,-9.339 -3.376,-2.395 -7.687,-4.417 -10.925,-7.181 -0.662,-0.564 -1.517,-1.147 -1.877,-1.592 -0.326,-0.404 -0.278,-0.955 -0.571,-1.361 -0.111,-0.151 -0.841,-0.841 -1.084,-1.097 -0.924,-0.975 -2.23,-1.839 -2.933,-3.132 l 0.227,-0.175 z"
           clip-path="url(#SVGID_6_)"
           inkscape:connector-curvature="0"
           style="fill:#1b181c" />
        <path
           id="path4469"
           d="m 372.164,311.353 0.207,-0.206 c 0.879,3.68 1.176,7.719 1.694,11.858 0.496,3.954 1.271,8.265 0.506,12.369 -0.94,5.051 -1.788,10.771 -2.86,15.818 -0.049,0.229 -0.36,0.442 -0.377,0.71 -0.176,2.857 -1.49,5.156 -3.133,7.43 -1.423,1.966 -2.522,4.133 -4.334,5.587 -0.662,4.008 -1.699,8.086 -2.464,12.32 -0.388,2.144 -0.588,4.376 -0.928,6.548 -0.317,2.034 -0.356,4.192 -1.382,5.928 -0.942,-0.12 -0.27,-0.978 -0.242,-1.339 0.275,-3.628 1.064,-7.164 1.719,-11.045 0.736,-4.354 1.684,-8.456 2.455,-12.173 -1.808,-0.342 -3.311,0.699 -5.011,0.843 -1.005,0.085 -1.968,-0.23 -2.961,-0.195 -1.076,0.04 -2.351,0.825 -3.31,0.076 0.389,-0.632 1.516,-0.583 2.525,-0.715 1.299,-0.169 3.381,0.172 4.963,-0.113 1.036,-0.186 1.995,-0.952 3.678,-0.638 1.156,-0.602 2.201,-2.131 3.385,-3.742 0.429,-0.583 0.826,-1.219 1.277,-1.825 2.209,-2.975 3.418,-7.518 4.157,-12.942 0.569,-4.18 1.281,-8.512 1.808,-12.363 0.181,-1.331 0.523,-2.625 0.443,-4.229 -0.318,-6.314 -1.811,-12.585 -2.113,-18.057 l 0.298,0.095 z"
           clip-path="url(#SVGID_6_)"
           inkscape:connector-curvature="0"
           style="fill:#1b181c" />
        <path
           id="path4471"
           d="m 336.462,248.155 -0.236,-0.186 c 0.663,-0.157 1.851,-0.356 2.304,0.151 -0.113,0.718 -1.394,0.252 -2.168,0.297 l 0.1,-0.262 z"
           clip-path="url(#SVGID_6_)"
           inkscape:connector-curvature="0"
           style="fill:#1b181c" />
        <path
           id="path4473"
           d="m 299.385,228.694 0.272,0.121 c -0.385,0.441 -1.231,0.415 -2.011,0.455 -0.009,-0.788 0.864,-0.683 1.538,-0.78 l 0.201,0.204 z"
           clip-path="url(#SVGID_6_)"
           inkscape:connector-curvature="0"
           style="fill:#1b181c" />
        <path
           id="path4475"
           d="m 329.982,224.164 -0.272,-0.122 c 1.558,-1.264 6.043,-1.35 8.106,-0.199 0.528,0.294 1.312,0.189 0.93,0.943 -1.057,0.087 -1.842,-0.702 -2.912,-0.926 -2.032,-0.427 -4.014,0.162 -5.65,0.508 l -0.202,-0.204 z"
           clip-path="url(#SVGID_6_)"
           inkscape:connector-curvature="0"
           style="fill:#1b181c" />
        <path
           id="path4477"
           d="m 401.815,239.15 -0.242,-0.089 c -0.022,-0.126 0.074,-0.134 0.175,-0.135 l 0.067,0.224 0.243,0.09 c 0.021,0.127 -0.075,0.133 -0.176,0.135 l -0.067,-0.225 z"
           clip-path="url(#SVGID_6_)"
           inkscape:connector-curvature="0"
           style="fill:#1b181c" />
        <path
           id="path4479"
           d="m 408.201,240.012 -0.241,-0.089 c -0.022,-0.127 0.073,-0.135 0.175,-0.137 l 0.066,0.226 0.243,0.089 c 0.022,0.126 -0.074,0.134 -0.175,0.135 l -0.068,-0.224 z"
           clip-path="url(#SVGID_6_)"
           inkscape:connector-curvature="0"
           style="fill:#1b181c" />
        <path
           id="path4481"
           d="m 414.771,240.592 -0.251,0.056 c -0.017,-0.172 0.053,-0.256 0.185,-0.281 l 0.066,0.225 0.252,-0.057 c 0.016,0.172 -0.055,0.258 -0.184,0.282 l -0.068,-0.225 z"
           clip-path="url(#SVGID_6_)"
           inkscape:connector-curvature="0"
           style="fill:#1b181c" />
        <path
           id="path4483"
           d="m 328.531,275.728 c -0.221,0.525 -0.512,1.021 -0.655,1.572"
           clip-path="url(#SVGID_6_)"
           inkscape:connector-curvature="0"
           style="fill:none;stroke:#1b181c;stroke-width:1.023;stroke-linecap:round" />
        <path
           id="path4485"
           d="m 324.866,281.213 c -0.55,-1.551 -1.808,-2.829 -2.9,-4.126"
           clip-path="url(#SVGID_6_)"
           inkscape:connector-curvature="0"
           style="fill:none;stroke:#1b181c;stroke-width:1.38900006;stroke-linecap:round" />
        <path
           id="path4487"
           d="m 350.365,315.398 c -0.111,-0.046 -0.229,-0.11 -0.352,-0.19"
           clip-path="url(#SVGID_6_)"
           inkscape:connector-curvature="0"
           style="fill:none;stroke:#1b181c;stroke-width:1.148;stroke-linecap:round" />
        <path
           id="path4489"
           d="m 337.015,334.468 c -3.005,-8.14 -9.688,-14.628 -14.238,-22.085"
           clip-path="url(#SVGID_6_)"
           inkscape:connector-curvature="0"
           style="fill:none;stroke:#1b181c;stroke-width:1.41600001;stroke-linecap:round" />
        <path
           id="path4491"
           d="m 293.015,328.307 c -0.165,-2.953 0.807,-5.88 2.213,-8.518"
           clip-path="url(#SVGID_6_)"
           inkscape:connector-curvature="0"
           style="fill:none;stroke:#1b181c;stroke-width:1.33200002;stroke-linecap:round" />
        <path
           id="path4493"
           d="m 296.06,317.199 c -0.559,0.116 -1.248,-0.11 -1.705,0.301"
           clip-path="url(#SVGID_6_)"
           inkscape:connector-curvature="0"
           style="fill:none;stroke:#1b181c;stroke-width:1.296;stroke-linecap:round" />
        <path
           id="path4495"
           d="m 250.005,308.611 c 4.891,2.7 7.722,6.511 10.926,9.607 2.759,2.668 5.712,5.104 8.19,7.854 2.423,2.687 4.805,5.317 6.782,8.185"
           clip-path="url(#SVGID_6_)"
           inkscape:connector-curvature="0"
           style="fill:none;stroke:#1b181c;stroke-width:1.41600001;stroke-linecap:round" />
        <path
           id="path4497"
           d="m 372.072,311.053 c 0.031,0.101 0.062,0.2 0.092,0.301"
           clip-path="url(#SVGID_6_)"
           inkscape:connector-curvature="0"
           style="fill:none;stroke:#1b181c;stroke-width:1.07099998;stroke-linecap:round" />
        <path
           id="path4499"
           d="m 329.51,250.358 c 1.898,-1.456 4.532,-1.958 6.953,-2.203"
           clip-path="url(#SVGID_6_)"
           inkscape:connector-curvature="0"
           style="fill:none;stroke:#1b181c;stroke-width:1.34300005;stroke-linecap:round" />
        <path
           id="path4501"
           d="m 294.99,253.251 c 1.309,-0.951 2.938,-1.461 4.317,-2.329"
           clip-path="url(#SVGID_6_)"
           inkscape:connector-curvature="0"
           style="fill:none;stroke:#1b181c;stroke-width:1.222;stroke-linecap:round" />
        <path
           id="path4503"
           d="m 299.757,228.554 c -0.116,0.028 -0.241,0.077 -0.372,0.141"
           clip-path="url(#SVGID_6_)"
           inkscape:connector-curvature="0"
           style="fill:none;stroke:#1b181c;stroke-width:1.148;stroke-linecap:round" />
        <path
           id="path4505"
           d="m 298.874,298.736 c 0.495,-1.331 1.152,-2.638 1.558,-4.008"
           clip-path="url(#SVGID_6_)"
           inkscape:connector-curvature="0"
           style="fill:none;stroke:#1b181c;stroke-width:1.25100005;stroke-linecap:round" />
        <path
           id="path4507"
           d="m 328.574,224.97 c 0.536,-0.158 1.001,-0.467 1.408,-0.807"
           clip-path="url(#SVGID_6_)"
           inkscape:connector-curvature="0"
           style="fill:none;stroke:#1b181c;stroke-width:1.27900004;stroke-linecap:round" />
        <path
           id="path4509"
           d="m 293.11,225.813 c 0.22,-0.578 0.026,-1.176 0.006,-1.761"
           clip-path="url(#SVGID_6_)"
           inkscape:connector-curvature="0"
           style="fill:none;stroke:#1b181c;stroke-width:1.08099997;stroke-linecap:round" />
        <path
           id="path4511"
           d="m 400.8,239.524 c 0.073,-0.271 0.301,-0.439 0.378,-0.709"
           clip-path="url(#SVGID_6_)"
           inkscape:connector-curvature="0"
           style="fill:none;stroke:#1b181c;stroke-width:0.73500001;stroke-linecap:round" />
        <path
           id="path4513"
           d="m 401.816,239.15 c 0.062,-0.143 0.119,-0.285 0.192,-0.427 m -0.294,0.714 c 0.017,-0.098 0.058,-0.192 0.103,-0.287"
           clip-path="url(#SVGID_6_)"
           inkscape:connector-curvature="0"
           style="fill:none;stroke:#1b181c;stroke-width:0.79400003;stroke-linecap:round" />
        <path
           id="path4515"
           d="m 402.609,239.643 c 0.074,-0.19 0.111,-0.385 0.203,-0.573"
           clip-path="url(#SVGID_6_)"
           inkscape:connector-curvature="0"
           style="fill:none;stroke:#1b181c;stroke-width:0.76999998;stroke-linecap:round" />
        <path
           id="path4517"
           d="m 405.076,239.806 c 0.047,-0.192 0.111,-0.385 0.203,-0.574"
           clip-path="url(#SVGID_6_)"
           inkscape:connector-curvature="0"
           style="fill:none;stroke:#1b181c;stroke-width:0.91399997;stroke-linecap:round" />
        <path
           id="path4519"
           d="m 406.219,240.029 c 0.047,-0.194 0.111,-0.386 0.203,-0.576"
           clip-path="url(#SVGID_6_)"
           inkscape:connector-curvature="0"
           style="fill:none;stroke:#1b181c;stroke-width:0.89600003;stroke-linecap:round" />
        <path
           id="path4521"
           d="m 407.195,240.24 c 0.063,-0.324 0.256,-0.556 0.387,-0.855"
           clip-path="url(#SVGID_6_)"
           inkscape:connector-curvature="0"
           style="fill:none;stroke:#1b181c;stroke-width:0.73199999;stroke-linecap:round" />
        <path
           id="path4523"
           d="m 408.1,240.299 c 0.018,-0.099 0.06,-0.192 0.102,-0.287"
           clip-path="url(#SVGID_6_)"
           inkscape:connector-curvature="0"
           style="fill:none;stroke:#1b181c;stroke-width:0.79400003;stroke-linecap:round" />
        <path
           id="path4525"
           d="m 408.201,240.012 c 0.062,-0.143 0.12,-0.286 0.195,-0.429"
           clip-path="url(#SVGID_6_)"
           inkscape:connector-curvature="0"
           style="fill:none;stroke:#1b181c;stroke-width:0.82999998;stroke-linecap:round" />
        <path
           id="path4527"
           d="m 409.15,240.662 c 0.094,-0.363 0.299,-0.637 0.396,-1.002"
           clip-path="url(#SVGID_6_)"
           inkscape:connector-curvature="0"
           style="fill:none;stroke:#1b181c;stroke-width:0.72899997;stroke-linecap:round" />
        <path
           id="path4529"
           d="m 410.055,240.722 c 0.09,-0.309 0.371,-0.529 0.469,-0.852"
           clip-path="url(#SVGID_6_)"
           inkscape:connector-curvature="0"
           style="fill:none;stroke:#1b181c;stroke-width:0.73400003;stroke-linecap:round" />
        <path
           id="path4531"
           d="m 410.795,240.771 c 0.128,-0.369 0.432,-0.62 0.561,-0.992"
           clip-path="url(#SVGID_6_)"
           inkscape:connector-curvature="0"
           style="fill:none;stroke:#1b181c;stroke-width:0.75700003;stroke-linecap:round" />
        <path
           id="path4533"
           d="m 411.598,241.117 c 0.162,-0.348 0.357,-0.653 0.562,-0.99"
           clip-path="url(#SVGID_6_)"
           inkscape:connector-curvature="0"
           style="fill:none;stroke:#1b181c;stroke-width:0.70700002;stroke-linecap:round" />
        <path
           id="path4535"
           d="m 412.595,241.035 c 0.062,-0.322 0.255,-0.554 0.388,-0.854"
           clip-path="url(#SVGID_6_)"
           inkscape:connector-curvature="0"
           style="fill:none;stroke:#1b181c;stroke-width:0.73199999;stroke-linecap:round" />
        <path
           id="path4537"
           d="m 413.427,240.944 c 0.074,-0.269 0.302,-0.439 0.377,-0.709"
           clip-path="url(#SVGID_6_)"
           inkscape:connector-curvature="0"
           style="fill:none;stroke:#1b181c;stroke-width:0.79000002;stroke-linecap:round" />
        <path
           id="path4539"
           d="m 414.578,241.019 c 0.062,-0.143 0.12,-0.285 0.193,-0.427"
           clip-path="url(#SVGID_6_)"
           inkscape:connector-curvature="0"
           style="fill:none;stroke:#1b181c;stroke-width:0.79400003;stroke-linecap:round" />
        <path
           id="path4541"
           d="m 414.771,240.592 c 0.062,-0.143 0.12,-0.286 0.193,-0.429"
           clip-path="url(#SVGID_6_)"
           inkscape:connector-curvature="0"
           style="fill:none;stroke:#1b181c;stroke-width:0.73199999;stroke-linecap:round" />
        <path
           id="path4543"
           d="m 415.565,241.085 c 0.086,-0.239 0.157,-0.479 0.213,-0.721"
           clip-path="url(#SVGID_6_)"
           inkscape:connector-curvature="0"
           style="fill:none;stroke:#1b181c;stroke-width:0.82999998;stroke-linecap:round" />
        <path
           id="path4545"
           d="m 416.377,241.285 c 0.063,-0.323 0.256,-0.555 0.389,-0.854"
           clip-path="url(#SVGID_6_)"
           inkscape:connector-curvature="0"
           style="fill:none;stroke:#1b181c;stroke-width:0.73199999;stroke-linecap:round" />
        <path
           style="fill:none;stroke:#1b181c;stroke-width:1.10475826;stroke-linecap:round"
           clip-path="url(#SVGID_6_)"
           d="m 230.28125,58.25 -0.125,0.6875 c 0.0726,-0.228571 0.0988,-0.457739 0.125,-0.6875 z"
           transform="matrix(0.84000275,0,0,0.84000275,224.29814,191.71584)"
           id="path4547"
           inkscape:connector-curvature="0" />
      </g>
      <path
         sodipodi:nodetypes="ccccccsscccccccccccccccccccccccscccccc"
         style="fill:#f9a528;fill-opacity:1"
         inkscape:connector-curvature="0"
         d="m 340.98211,352.46632 c -3.39357,-6.3164 -9.24881,-12.70005 -15.99328,-16.62098 l -6.1851,-17.75787 -20.08609,6.99532 -6.13216,-18.53934 -5.59648,-16.91982 c -0.25086,-0.759 -0.96075,-1.27247 -1.7603,-1.27247 l -8.4e-4,0 c -0.80062,0 -1.51051,0.51455 -1.7603,1.27568 l -8.524,25.91144 -21.90403,-5.5019 -4.76214,18.9588 c -5.62359,4.89449 -9.9096,12.17913 -11.69874,19.29722 -3.45229,13.7462 2.34211,27.04619 16.08512,30.49849 10.07079,2.5289 19.46159,-2.35917 24.88449,-10.25975 -3.85154,-0.60527 -7.16826,-3.02317 -9.49755,-7.00387 -3.97537,-6.7893 -4.017,-16.41603 -0.10032,-22.88935 l 1.58631,0.96075 c -3.58468,5.9257 -3.53663,14.75287 0.11315,20.99133 2.27271,3.88144 5.58196,6.05166 9.36304,6.2118 4.03089,-0.15586 5.79013,-4.60201 6.06661,-7.72017 0.63197,-7.14265 -0.75579,-15.69333 -4.24117,-22.67265 l 4.58065,-18.24039 -6.87045,-1.72508 6.68255,-20.31666 9.98114,30.17503 -7.94008,2.76483 6.42957,18.46029 c -2.0133,7.17787 -1.59485,15.61861 0.81877,22.55202 4.66071,13.38325 16.80674,21.31905 30.18892,16.65729 9.80393,-3.41602 14.9685,-12.65416 15.16491,-22.23391 -1.56708,0.70881 -3.23666,1.07283 -4.97136,1.07283 -2.20223,0 -4.50163,-0.57111 -6.81385,-1.71547 -7.04869,-3.49179 -12.36913,-11.51513 -12.65094,-19.07516 l 1.85318,-0.0695 c 0.25727,6.92167 5.14428,14.27461 11.62189,17.48351 4.03301,1.99731 7.99129,1.98983 11.25145,0.0405 3.26761,-2.34742 2.29619,-7.01881 0.8177,-9.77296 z"
         id="path4347" />
      <g
         style="fill:none;stroke:none"
         transform="matrix(0.84000274,0,0,0.84000274,129.79783,437.41664)"
         id="Page-1"
         sketch:type="MSPage">
        <g
           id="noun_22662_cc"
           sketch:type="MSLayerGroup"
           transform="translate(34,28)">
          <path
             style="fill:#ffffff"
             inkscape:connector-curvature="0"
             d="M 45.069513,57.695514 28.779856,60.943429 32.020744,44.619296 65,11.568529 65,0 0,0 0,81 65,81 65,37.721811 45.069513,57.695514 z"
             id="Shape"
             sketch:type="MSShapeGroup" />
          <path
             style="fill:#f9a528"
             inkscape:connector-curvature="0"
             d="M 74.245232,7 34.175135,47.07161 32,58 42.929903,55.823982 83,15.754067 74.245232,7 z"
             id="path4404"
             sketch:type="MSShapeGroup" />
        </g>
      </g>
      <g
         id="g5102"
         transform="matrix(1.1061317,0,0,1.1061317,52.51775,340.49912)"
         style="fill:#f9a528;fill-opacity:1">
        <path
           id="path5066"
           d="m 78.3,17.686 c 0.292,-0.39 0.578,-0.808 0.842,-1.272 1.392,-2.446 1.715,-4.886 0.722,-5.452 L 71.003,5.924 C 70.011,5.362 68.08,6.886 66.69,9.333 66.477,9.708 66.298,10.079 66.135,10.447 63.007,9.193 59.712,8.266 56.288,7.732 56.346,7.263 56.386,6.776 56.386,6.262 56.386,3.448 55.46,1.167 54.32,1.166 H 44.125 c -1.142,0 -2.066,2.281 -2.066,5.096 0,0.515 0.041,1.001 0.098,1.47 C 38.432,8.314 34.855,9.345 31.484,10.774 31.294,10.302 31.072,9.82 30.796,9.334 29.405,6.887 27.474,5.362 26.482,5.925 l -8.861,5.038 c -0.994,0.565 -0.671,3.005 0.721,5.452 0.38,0.668 0.801,1.259 1.232,1.767 C 9.821,26.549 3.625,38.95 3.625,52.778 c 0,25.143 20.454,45.597 45.597,45.597 25.142,0 45.597,-20.454 45.597,-45.597 C 94.818,38.679 88.384,26.056 78.3,17.686 z M 49.222,92.865 c -22.104,0 -40.086,-17.982 -40.086,-40.087 0,-22.104 17.983,-40.086 40.086,-40.086 22.103,0 40.086,17.983 40.086,40.086 0,22.105 -17.983,40.087 -40.086,40.087 z"
           inkscape:connector-curvature="0"
           style="fill:#f9a528;fill-opacity:1" />
        <rect
           id="rect5068"
           height="2.204"
           width="9.552"
           y="51.676998"
           x="75.119003"
           style="fill:#f9a528;fill-opacity:1" />
        <rect
           id="rect5070"
           height="2.204"
           width="9.5509996"
           y="51.676998"
           x="15.017"
           style="fill:#f9a528;fill-opacity:1" />
        <rect
           id="rect5072"
           height="9.5509996"
           width="2.2049999"
           transform="matrix(0.5001,0.866,-0.866,0.5001,70.31,-46.2892)"
           y="32.978001"
           x="74.144997"
           style="fill:#f9a528;fill-opacity:1" />
        <rect
           id="rect5074"
           height="9.552"
           width="2.204"
           transform="matrix(-0.4999,-0.8661,0.8661,-0.4999,-23.9292,121.7915)"
           y="63.028"
           x="22.094999"
           style="fill:#f9a528;fill-opacity:1" />
        <rect
           id="rect5076"
           height="9.552"
           width="2.204"
           transform="matrix(-0.8661,-0.4999,0.4999,-0.8661,106.5149,82.0416)"
           y="21.976999"
           x="63.145"
           style="fill:#f9a528;fill-opacity:1" />
        <rect
           id="rect5078"
           height="9.552"
           width="2.2049999"
           transform="matrix(-0.866,-0.5001,0.5001,-0.866,24.3992,164.1446)"
           y="74.027"
           x="33.092999"
           style="fill:#f9a528;fill-opacity:1" />
        <rect
           id="rect5080"
           height="9.5509996"
           width="2.204"
           y="18.489"
           x="47.808998"
           style="fill:#f9a528;fill-opacity:1" />
        <rect
           id="rect5082"
           height="9.5509996"
           width="2.204"
           y="78.592003"
           x="47.808998"
           style="fill:#f9a528;fill-opacity:1" />
        <rect
           id="rect5084"
           height="2.2049999"
           width="9.5509996"
           transform="matrix(-0.5,-0.866,0.866,-0.5,28.1221,173.845)"
           y="77.702003"
           x="59.471001"
           style="fill:#f9a528;fill-opacity:1" />
        <rect
           id="rect5086"
           height="2.204"
           width="9.552"
           transform="matrix(0.4999,0.8661,-0.8661,0.4999,40.2725,-16.2369)"
           y="25.652"
           x="29.42"
           style="fill:#f9a528;fill-opacity:1" />
        <rect
           id="rect5088"
           height="2.2049999"
           width="9.5509996"
           transform="matrix(-0.8661,-0.4999,0.4999,-0.8661,106.2072,162.9855)"
           y="66.164001"
           x="70.160004"
           style="fill:#f9a528;fill-opacity:1" />
        <path
           id="path5090"
           d="m 57.644,21.961 c -1.42,-0.409 -3.059,0.961 -3.663,3.058 l -7.445,25.903 -16.74,-16.74 c -1.398,-1.398 -3.372,-1.693 -4.408,-0.657 -0.958,0.958 -0.766,2.711 0.371,4.076 l -6.458,-3.729 -1.102,1.909 8.271,4.776 0.804,-1.394 17.952,17.951 c 0.502,0.503 1.08,0.857 1.661,1.063 0.101,0.051 0.198,0.108 0.307,0.14 0.218,0.062 0.44,0.071 0.663,0.055 0.686,0.037 1.323,-0.147 1.777,-0.601 0.281,-0.281 0.455,-0.634 0.545,-1.022 0.283,-0.436 0.519,-0.935 0.678,-1.49 L 59.125,26.496 C 59.729,24.4 59.064,22.369 57.644,21.961 z"
           inkscape:connector-curvature="0"
           style="fill:#f9a528;fill-opacity:1" />
      </g>
    </g>
  </g>
</svg>
